<svg xmlns="http://www.w3.org/2000/svg" aria-hidden="true" role="img"
     width="100" height="100" viewBox="0 0 40 40" fill="none">
    <path fill="#e41321" d="M27.621 27.225h-5.328a0.535 0.535 0 0 1-0.533-0.536V13.317c0-0.295 0.239-0.535 0.533-0.535h4.94c3.707 0 4.485 2.183 4.485 4.013 0 1.059-0.281 1.899-0.839 2.516 1.359 0.561 2.091 1.825 2.091 3.653 0 2.668-2 4.26-5.349 4.26m-7.736 0H8.819a0.533 0.533 0 0 1-0.532-0.536V13.317c0-0.295 0.238-0.535 0.532-0.535h5.17c3.229 0 5.155 1.739 5.155 4.651 0 1.937-0.974 3.459-2.544 4.077l3.682 4.825a0.536 0.536 0 0 1-0.399 0.889m0.02-27.188C9.837 0 0 8.949 0 19.986c0 11.04 8.949 19.989 19.987 19.989S39.973 31.026 39.973 19.986 31.025 0 19.986 0" />
</svg>